<?xml version="1.0" encoding="UTF-8" standalone="no"?><!DOCTYPE svg PUBLIC "-//W3C//DTD SVG 1.1//EN" "http://www.w3.org/Graphics/SVG/1.1/DTD/svg11.dtd"><svg width="100%" height="100%" viewBox="0 0 58 57" version="1.1" xmlns="http://www.w3.org/2000/svg" xmlns:xlink="http://www.w3.org/1999/xlink" xml:space="preserve"><path d="M29,-0C38.395,-0 53.677,11.103 56.581,20.038C59.484,28.973 53.646,46.939 46.046,52.461C38.445,57.984 19.555,57.984 11.954,52.461C4.354,46.939 -1.484,28.973 1.419,20.038C4.322,11.103 19.605,-0 29,-0ZM29,22C26.732,22 23.043,24.68 22.343,26.837C21.642,28.994 23.051,33.33 24.885,34.663C26.72,35.996 31.28,35.996 33.114,34.663C34.949,33.33 36.358,28.994 35.657,26.837C34.957,24.68 31.268,22 29,22Z" style="fill:rgb(255,251,0);"/></svg>
